<?xml version="1.0" encoding="utf-8"?>
<!-- Generator: Adobe Illustrator 16.0.0, SVG Export Plug-In . SVG Version: 6.00 Build 0)  -->
<!DOCTYPE svg PUBLIC "-//W3C//DTD SVG 1.1//EN" "http://www.w3.org/Graphics/SVG/1.1/DTD/svg11.dtd">
<svg version="1.1" id="Layer_1" xmlns="http://www.w3.org/2000/svg" xmlns:xlink="http://www.w3.org/1999/xlink" x="0px" y="0px"
	 width="97.333px" height="96.667px" viewBox="0 0 97.333 96.667" enable-background="new 0 0 97.333 96.667" xml:space="preserve">
<linearGradient id="SVGID_1_" gradientUnits="userSpaceOnUse" x1="48.3037" y1="20.374" x2="49.4522" y2="86.1711">
	<stop  offset="0.6559" style="stop-color:#F9F9FA"/>
	<stop  offset="1" style="stop-color:#F1F0F0"/>
</linearGradient>
<polygon fill="url(#SVGID_1_)" points="49.158,20.359 16.658,52.953 16.658,85.609 81.657,85.609 81.657,52.952 "/>
<linearGradient id="SVGID_2_" gradientUnits="userSpaceOnUse" x1="49.1577" y1="20.3589" x2="49.1577" y2="41.3692">
	<stop  offset="0.2419" style="stop-color:#231F20"/>
	<stop  offset="1" style="stop-color:#6E6F72"/>
</linearGradient>
<polygon opacity="0.49" fill="url(#SVGID_2_)" points="81.657,56.327 49.158,23.734 16.658,56.328 16.658,52.953 49.158,20.359 
	81.657,52.952 "/>
<linearGradient id="SVGID_3_" gradientUnits="userSpaceOnUse" x1="28.8926" y1="22.335" x2="65.1496" y2="70.4496">
	<stop  offset="0.3602" style="stop-color:#44A37D"/>
	<stop  offset="1" style="stop-color:#35937C"/>
</linearGradient>
<path fill="url(#SVGID_3_)" d="M49.163,20.472L81.46,52.769c1.953,1.953,5.119,1.953,7.071,0s1.952-5.119,0-7.071L52.591,9.757
	c-0.847-0.937-2.071-1.526-3.433-1.526c-1.195,0-2.284,0.453-3.105,1.197L9.793,45.698c-1.953,1.953-1.953,5.119,0,7.071
	c1.953,1.952,5.119,1.952,7.071,0L49.163,20.472z"/>
<linearGradient id="SVGID_4_" gradientUnits="userSpaceOnUse" x1="39.1934" y1="57.6631" x2="58.7835" y2="85.6406">
	<stop  offset="0.3602" style="stop-color:#44A37D"/>
	<stop  offset="1" style="stop-color:#35937C"/>
</linearGradient>
<path fill="url(#SVGID_4_)" d="M39.495,85.609V59.325c0-1.986,1.61-3.597,3.597-3.597h12.14c1.986,0,3.598,1.61,3.598,3.597v26.284
	H39.495z"/>
<path fill="#FFFFFF" d="M48.421,12.396c0.25-0.302,0.629-0.495,1.053-0.495c0.42,0,0.796,0.19,1.046,0.488l36.313,36.314
	c0.389,0.388,0.913,0.491,1.174,0.231l0,0c0.261-0.261,0.157-0.786-0.23-1.174L50.44,10.425c-0.247-0.247-0.589-0.4-0.966-0.4
	s-0.719,0.153-0.966,0.4L13.7,45.233c-0.362,0.361-0.444,0.866-0.183,1.126l0,0c0.26,0.26,0.765,0.178,1.126-0.184L48.421,12.396z"
	/>
<path opacity="0.03" fill="#231F20" d="M16.658,85.609h65v-25.5c0,0-15.582,10.052-31.748,10.052
	c-16.167,0-33.251-1.552-33.251-1.552V85.609z"/>
<linearGradient id="SVGID_5_" gradientUnits="userSpaceOnUse" x1="48.2344" y1="54.4023" x2="49.8974" y2="86.1342">
	<stop  offset="0" style="stop-color:#FFFFFF"/>
	<stop  offset="1" style="stop-color:#E7E7E7"/>
</linearGradient>
<path fill="url(#SVGID_5_)" d="M58.829,85.609V59.266c0-1.986-1.611-3.597-3.598-3.597h-12.14c-1.986,0-3.597,1.61-3.597,3.597
	v26.343h-1.083V58.713c0-2.209,1.791-4,4-4h13.501c2.209,0,4,1.791,4,4v26.896L58.829,85.609"/>
<circle opacity="0.35" fill="#010101" cx="56.402" cy="71.004" r="1.167"/>
<radialGradient id="SVGID_6_" cx="55.8916" cy="70.3906" r="1.5897" gradientUnits="userSpaceOnUse">
	<stop  offset="0.2957" style="stop-color:#FFFFFF"/>
	<stop  offset="0.5883" style="stop-color:#FBFAFA"/>
	<stop  offset="0.6937" style="stop-color:#F0EFEE"/>
	<stop  offset="0.7688" style="stop-color:#E1DFE0"/>
	<stop  offset="0.8296" style="stop-color:#CECCCD"/>
	<stop  offset="0.8816" style="stop-color:#B8B6B8"/>
	<stop  offset="0.9277" style="stop-color:#9F9D9F"/>
	<stop  offset="0.9683" style="stop-color:#858486"/>
	<stop  offset="1" style="stop-color:#6E6F72"/>
</radialGradient>
<circle fill="url(#SVGID_6_)" cx="56.079" cy="70.609" r="1.166"/>
</svg>
